<svg xmlns="http://www.w3.org/2000/svg" xmlns:xlink="http://www.w3.org/1999/xlink" preserveAspectRatio="xMidYMid" width="24" height="17" class="upload" viewBox="0 0 24 17">
  <path d="M14.145,12.500 C14.575,11.054 15.914,10.000 17.500,10.000 C19.085,10.000 20.425,11.054 20.855,12.500 L22.000,12.500 L22.000,10.000 C22.000,9.685 21.852,9.389 21.600,9.200 L20.000,8.000 L14.000,8.000 C12.343,8.000 11.000,6.657 11.000,5.000 L11.000,2.000 L9.162,2.000 C8.301,2.000 7.537,2.551 7.265,3.367 L6.581,5.419 C6.067,6.960 4.625,8.000 3.000,8.000 C2.448,8.000 2.000,8.448 2.000,9.000 L2.000,12.500 L3.645,12.500 C4.075,11.054 5.414,10.000 7.000,10.000 C8.586,10.000 9.925,11.054 10.355,12.500 L14.145,12.500 ZM14.145,14.500 L10.355,14.500 C9.925,15.946 8.586,17.000 7.000,17.000 C5.414,17.000 4.075,15.946 3.645,14.500 L2.000,14.500 C0.895,14.500 -0.000,13.605 -0.000,12.500 L-0.000,9.000 C-0.000,7.343 1.343,6.000 3.000,6.000 C3.764,6.000 4.442,5.511 4.684,4.786 L5.367,2.735 C5.912,1.102 7.441,-0.000 9.162,-0.000 L14.969,-0.000 C16.604,-0.000 18.075,0.996 18.683,2.514 L19.616,4.847 C19.752,5.188 19.979,5.485 20.273,5.705 L22.800,7.600 C23.555,8.167 24.000,9.056 24.000,10.000 L24.000,12.500 C24.000,13.605 23.105,14.500 22.000,14.500 L20.855,14.500 C20.425,15.946 19.085,17.000 17.500,17.000 C15.914,17.000 14.575,15.946 14.145,14.500 ZM13.000,2.000 L13.000,5.000 C13.000,5.552 13.448,6.000 14.000,6.000 L17.950,6.000 C17.879,5.868 17.815,5.731 17.759,5.590 L16.826,3.257 C16.522,2.498 15.787,2.000 14.969,2.000 L13.000,2.000 ZM17.500,15.000 C18.328,15.000 19.000,14.328 19.000,13.500 C19.000,12.672 18.328,12.000 17.500,12.000 C16.672,12.000 16.000,12.672 16.000,13.500 C16.000,14.328 16.672,15.000 17.500,15.000 ZM7.000,15.000 C7.828,15.000 8.500,14.328 8.500,13.500 C8.500,12.672 7.828,12.000 7.000,12.000 C6.171,12.000 5.500,12.672 5.500,13.500 C5.500,14.328 6.171,15.000 7.000,15.000 Z">
</svg>