<svg xmlns="http://www.w3.org/2000/svg" xmlns:xlink="http://www.w3.org/1999/xlink" preserveAspectRatio="xMidYMid" width="22" height="24" class="upload" viewBox="0 0 22 24">
  <path d="M15.000,10.171 L15.000,9.000 C15.000,8.448 14.552,8.000 14.000,8.000 C13.447,8.000 13.000,7.552 13.000,7.000 L13.000,5.000 C13.000,4.448 12.552,4.000 12.000,4.000 L10.000,4.000 C9.448,4.000 9.000,4.448 9.000,5.000 L9.000,7.000 C9.000,7.552 8.552,8.000 8.000,8.000 C7.448,8.000 7.000,8.448 7.000,9.000 L7.000,13.171 C8.165,13.582 9.000,14.694 9.000,16.000 L9.000,22.000 L13.000,22.000 L13.000,13.000 C13.000,11.694 13.835,10.582 15.000,10.171 ZM17.000,10.000 L19.000,10.000 C20.657,10.000 22.000,11.343 22.000,13.000 L22.000,22.000 C22.000,23.105 21.105,24.000 20.000,24.000 L14.250,24.000 L7.750,24.000 L2.000,24.000 C0.895,24.000 -0.000,23.105 -0.000,22.000 L-0.000,16.000 C-0.000,14.343 1.343,13.000 3.000,13.000 L5.000,13.000 L5.000,9.000 C5.000,7.694 5.835,6.582 7.000,6.171 L7.000,5.000 C7.000,3.343 8.343,2.000 10.000,2.000 L10.000,1.000 C10.000,0.448 10.448,-0.000 11.000,-0.000 C11.552,-0.000 12.000,0.448 12.000,1.000 L12.000,2.000 C13.657,2.000 15.000,3.343 15.000,5.000 L15.000,6.171 C16.165,6.582 17.000,7.694 17.000,9.000 L17.000,10.000 ZM7.000,16.000 C7.000,15.448 6.552,15.000 6.000,15.000 L3.000,15.000 C2.448,15.000 2.000,15.448 2.000,16.000 L2.000,22.000 L7.000,22.000 L7.000,16.000 ZM3.500,21.000 C2.948,21.000 2.500,20.552 2.500,20.000 C2.500,19.448 2.948,19.000 3.500,19.000 L5.500,19.000 C6.052,19.000 6.500,19.448 6.500,20.000 C6.500,20.552 6.052,21.000 5.500,21.000 L3.500,21.000 ZM3.500,18.000 C2.948,18.000 2.500,17.552 2.500,17.000 C2.500,16.448 2.948,16.000 3.500,16.000 L5.500,16.000 C6.052,16.000 6.500,16.448 6.500,17.000 C6.500,17.552 6.052,18.000 5.500,18.000 L3.500,18.000 ZM15.000,22.000 L20.000,22.000 L20.000,13.000 C20.000,12.448 19.552,12.000 19.000,12.000 L16.000,12.000 C15.448,12.000 15.000,12.448 15.000,13.000 L15.000,22.000 ZM16.500,18.000 C15.948,18.000 15.500,17.552 15.500,17.000 C15.500,16.448 15.948,16.000 16.500,16.000 L18.500,16.000 C19.052,16.000 19.500,16.448 19.500,17.000 C19.500,17.552 19.052,18.000 18.500,18.000 L16.500,18.000 ZM16.500,21.000 C15.948,21.000 15.500,20.552 15.500,20.000 C15.500,19.448 15.948,19.000 16.500,19.000 L18.500,19.000 C19.052,19.000 19.500,19.448 19.500,20.000 C19.500,20.552 19.052,21.000 18.500,21.000 L16.500,21.000 ZM16.500,15.000 C15.948,15.000 15.500,14.552 15.500,14.000 C15.500,13.448 15.948,13.000 16.500,13.000 L18.500,13.000 C19.052,13.000 19.500,13.448 19.500,14.000 C19.500,14.552 19.052,15.000 18.500,15.000 L16.500,15.000 Z">
</svg>