<svg xmlns="http://www.w3.org/2000/svg" xmlns:xlink="http://www.w3.org/1999/xlink" preserveAspectRatio="xMidYMid" width="16" height="22" class="upload" viewBox="0 0 16 22">
  <path d="M14.000,14.000 L14.000,4.000 C14.000,2.895 13.105,2.000 12.000,2.000 L4.000,2.000 C2.895,2.000 2.000,2.895 2.000,4.000 L2.000,14.000 L14.000,14.000 ZM14.000,16.000 L2.000,16.000 L2.000,18.000 C2.000,19.105 2.895,20.000 4.000,20.000 L12.000,20.000 C13.105,20.000 14.000,19.105 14.000,18.000 L14.000,16.000 ZM4.000,-0.000 L12.000,-0.000 C14.209,-0.000 16.000,1.791 16.000,4.000 L16.000,18.000 C16.000,20.209 14.209,22.000 12.000,22.000 L4.000,22.000 C1.791,22.000 -0.000,20.209 -0.000,18.000 L-0.000,4.000 C-0.000,1.791 1.791,-0.000 4.000,-0.000 ZM8.000,19.500 C7.172,19.500 6.500,18.828 6.500,18.000 C6.500,17.172 7.172,16.500 8.000,16.500 C8.828,16.500 9.500,17.172 9.500,18.000 C9.500,18.828 8.828,19.500 8.000,19.500 Z">
</svg>