<svg xmlns="http://www.w3.org/2000/svg" xmlns:xlink="http://www.w3.org/1999/xlink" preserveAspectRatio="xMidYMid" width="14" height="12" class="sign-1" viewBox="0 0 14 12">  
  <path d="M14.000,4.118 C14.000,4.127 14.000,4.137 14.000,4.146 L14.000,9.051 C14.000,10.409 12.860,11.510 11.454,11.510 L2.546,11.510 C1.140,11.510 0.000,10.409 0.000,9.051 L0.000,4.146 C-0.000,4.137 -0.000,4.127 0.000,4.118 L0.000,2.902 C0.000,1.544 1.140,0.442 2.546,0.442 L11.454,0.442 C12.860,0.442 14.000,1.544 14.000,2.902 L14.000,4.118 ZM12.727,3.674 L12.727,2.902 C12.727,2.223 12.157,1.672 11.454,1.672 L2.546,1.672 C1.843,1.672 1.273,2.223 1.273,2.902 L1.273,3.674 L6.817,5.281 C6.936,5.316 7.063,5.316 7.183,5.281 L12.727,3.674 ZM12.727,4.958 L7.548,6.459 C7.191,6.563 6.809,6.563 6.451,6.459 L1.273,4.958 L1.273,9.051 C1.273,9.730 1.843,10.280 2.546,10.280 L11.454,10.280 C12.157,10.280 12.727,9.730 12.727,9.051 L12.727,4.958 Z">
</svg>
