<svg xmlns="http://www.w3.org/2000/svg" xmlns:xlink="http://www.w3.org/1999/xlink" preserveAspectRatio="xMidYMid" width="21" height="21" class="upload" viewBox="0 0 21 21">
  <path d="M8.000,8.713 L8.000,15.920 C8.000,16.037 7.980,16.149 7.944,16.253 C7.981,16.473 8.000,16.699 8.000,16.929 C8.000,19.158 6.209,20.965 4.000,20.965 C1.791,20.965 -0.000,19.158 -0.000,16.929 C-0.000,14.700 1.791,12.893 4.000,12.893 C4.728,12.893 5.412,13.089 6.000,13.433 L6.000,7.863 C6.000,7.851 6.000,7.840 6.000,7.829 L6.000,5.399 C6.000,3.407 7.440,1.712 9.392,1.409 L16.392,0.322 C18.575,-0.016 20.617,1.495 20.953,3.698 C20.984,3.901 21.000,4.107 21.000,4.312 L21.000,5.813 C21.000,5.825 21.000,5.836 21.000,5.847 L21.000,13.902 C21.000,14.018 20.980,14.131 20.944,14.235 C20.981,14.455 21.000,14.680 21.000,14.911 C21.000,17.140 19.209,18.947 17.000,18.947 C14.791,18.947 13.000,17.140 13.000,14.911 C13.000,12.681 14.791,10.874 17.000,10.874 C17.728,10.874 18.411,11.071 19.000,11.414 L19.000,7.005 L8.000,8.713 ZM8.000,6.671 L19.000,4.963 L19.000,4.312 C19.000,4.209 18.992,4.107 18.976,4.005 C18.809,2.903 17.787,2.148 16.696,2.317 L9.696,3.404 C8.720,3.555 8.000,4.403 8.000,5.399 L8.000,6.671 ZM4.000,18.947 C5.104,18.947 6.000,18.044 6.000,16.929 C6.000,15.814 5.104,14.911 4.000,14.911 C2.895,14.911 2.000,15.814 2.000,16.929 C2.000,18.044 2.895,18.947 4.000,18.947 ZM17.000,16.929 C18.104,16.929 19.000,16.025 19.000,14.911 C19.000,13.796 18.104,12.893 17.000,12.893 C15.895,12.893 15.000,13.796 15.000,14.911 C15.000,16.025 15.895,16.929 17.000,16.929 Z">
</svg>