<svg xmlns="http://www.w3.org/2000/svg" xmlns:xlink="http://www.w3.org/1999/xlink" preserveAspectRatio="xMidYMid" width="14" height="12" viewBox="0 0 14 12">
  <defs>
    <style>
      .cls-1 {
        fill: #bdc3d3;
        fill-rule: evenodd;
      }
    </style>
  </defs>
  <path d="M6.999,11.486 C3.496,11.486 0.001,8.454 0.001,5.954 C0.001,3.453 3.496,0.421 6.999,0.421 C10.503,0.421 13.998,3.453 13.998,5.954 C13.998,8.454 10.503,11.486 6.999,11.486 ZM6.999,10.257 C9.829,10.257 12.726,7.744 12.726,5.954 C12.726,4.163 9.829,1.650 6.999,1.650 C4.170,1.650 1.273,4.163 1.273,5.954 C1.273,7.744 4.170,10.257 6.999,10.257 ZM6.999,8.720 C5.418,8.720 4.136,7.481 4.136,5.954 C4.136,4.426 5.418,3.187 6.999,3.187 C8.581,3.187 9.863,4.426 9.863,5.954 C9.863,7.481 8.581,8.720 6.999,8.720 ZM6.999,7.490 C7.878,7.490 8.590,6.802 8.590,5.954 C8.590,5.105 7.878,4.417 6.999,4.417 C6.121,4.417 5.409,5.105 5.409,5.954 C5.409,6.802 6.121,7.490 6.999,7.490 Z" class="cls-1"/>
</svg>
