<svg xmlns="http://www.w3.org/2000/svg" xmlns:xlink="http://www.w3.org/1999/xlink" preserveAspectRatio="xMidYMid" width="14" height="13" class="sign-1" viewBox="0 0 14 13">
	<path d="M6.417,7.940 C6.600,8.011 6.796,8.049 6.999,8.049 C7.878,8.049 8.590,7.341 8.590,6.468 C8.590,6.266 8.552,6.071 8.481,5.890 L6.417,7.940 ZM9.424,4.952 C9.707,5.399 9.863,5.922 9.863,6.468 C9.863,8.039 8.581,9.314 6.999,9.314 C6.450,9.314 5.924,9.159 5.474,8.877 L4.200,10.143 C5.080,10.627 6.037,10.895 6.999,10.895 C9.830,10.895 12.728,8.309 12.728,6.468 C12.728,5.646 11.991,4.448 10.867,3.519 L9.424,4.952 ZM11.770,2.621 C13.112,3.760 14.001,5.249 14.001,6.468 C14.001,9.040 10.504,12.160 6.999,12.160 C5.693,12.160 4.413,11.766 3.270,11.068 L1.598,12.729 C1.350,12.976 0.947,12.976 0.698,12.729 C0.449,12.482 0.449,12.081 0.698,11.834 L2.729,9.816 C2.735,9.810 2.740,9.805 2.745,9.800 L10.354,2.240 C10.359,2.234 10.364,2.229 10.370,2.224 L12.400,0.207 C12.649,-0.040 13.051,-0.040 13.300,0.207 C13.549,0.454 13.549,0.854 13.300,1.101 L11.770,2.621 ZM8.243,2.188 C7.832,2.090 7.416,2.041 6.999,2.041 C4.168,2.041 1.271,4.626 1.271,6.468 C1.271,6.927 1.516,7.550 1.969,8.184 C2.173,8.468 2.106,8.863 1.819,9.066 C1.533,9.268 1.135,9.201 0.932,8.916 C0.337,8.086 -0.002,7.223 -0.002,6.468 C-0.002,3.895 3.494,0.776 6.999,0.776 C7.516,0.776 8.031,0.837 8.537,0.957 C8.879,1.038 9.090,1.379 9.009,1.718 C8.928,2.058 8.585,2.268 8.243,2.188 Z">
</svg>