<svg xmlns="http://www.w3.org/2000/svg" xmlns:xlink="http://www.w3.org/1999/xlink" preserveAspectRatio="xMidYMid" width="20" height="20" class="upload" viewBox="0 0 20 20">
  <path d="M4.000,-0.000 L16.000,-0.000 C18.209,-0.000 20.000,1.791 20.000,4.000 L20.000,16.000 C20.000,18.209 18.209,20.000 16.000,20.000 L4.000,20.000 C1.791,20.000 -0.000,18.209 -0.000,16.000 L-0.000,4.000 C-0.000,1.791 1.791,-0.000 4.000,-0.000 ZM4.000,2.000 C2.895,2.000 2.000,2.895 2.000,4.000 L2.000,16.000 C2.000,17.105 2.895,18.000 4.000,18.000 L16.000,18.000 C17.105,18.000 18.000,17.105 18.000,16.000 L18.000,4.000 C18.000,2.895 17.105,2.000 16.000,2.000 L4.000,2.000 ZM5.000,6.500 C4.448,6.500 4.000,6.052 4.000,5.500 C4.000,4.948 4.448,4.500 5.000,4.500 L15.000,4.500 C15.552,4.500 16.000,4.948 16.000,5.500 C16.000,6.052 15.552,6.500 15.000,6.500 L5.000,6.500 ZM5.000,11.000 C4.448,11.000 4.000,10.552 4.000,10.000 C4.000,9.448 4.448,9.000 5.000,9.000 L15.000,9.000 C15.552,9.000 16.000,9.448 16.000,10.000 C16.000,10.552 15.552,11.000 15.000,11.000 L5.000,11.000 ZM5.000,15.500 C4.448,15.500 4.000,15.052 4.000,14.500 C4.000,13.948 4.448,13.500 5.000,13.500 L11.000,13.500 C11.552,13.500 12.000,13.948 12.000,14.500 C12.000,15.052 11.552,15.500 11.000,15.500 L5.000,15.500 Z">
</svg>