<svg xmlns="http://www.w3.org/2000/svg" xmlns:xlink="http://www.w3.org/1999/xlink" preserveAspectRatio="xMidYMid" width="26" height="26" viewBox="0 0 26 26">
  <defs>
    <style>
      .cls-1 {
        fill: #fff;
        fill-rule: evenodd;
      }
    </style>
  </defs>
  <path d="M13.000,27.000 C5.280,27.000 -1.000,20.720 -1.000,13.000 C-1.000,5.280 5.280,-1.000 13.000,-1.000 C20.720,-1.000 27.000,5.280 27.000,13.000 C27.000,20.720 20.720,27.000 13.000,27.000 ZM13.000,1.000 C6.383,1.000 1.000,6.383 1.000,13.000 C1.000,19.617 6.383,25.000 13.000,25.000 C19.617,25.000 25.000,19.617 25.000,13.000 C25.000,6.383 19.617,1.000 13.000,1.000 ZM17.807,19.000 L8.199,19.000 C7.535,19.000 6.998,18.446 6.998,17.762 L6.998,16.524 C6.998,15.156 8.073,14.047 9.400,14.047 L16.606,14.047 C17.933,14.047 19.008,15.156 19.008,16.524 L19.008,17.762 C19.008,18.446 18.470,19.000 17.807,19.000 ZM17.807,16.524 C17.807,15.840 17.269,15.286 16.606,15.286 L9.400,15.286 C8.736,15.286 8.199,15.840 8.199,16.524 L8.199,17.762 L17.807,17.762 L17.807,16.524 ZM13.003,13.428 C11.013,13.428 9.400,11.766 9.400,9.714 C9.400,7.663 11.013,6.000 13.003,6.000 C14.993,6.000 16.606,7.663 16.606,9.714 C16.606,11.766 14.993,13.428 13.003,13.428 ZM13.003,7.238 C11.676,7.238 10.601,8.347 10.601,9.714 C10.601,11.082 11.676,12.190 13.003,12.190 C14.329,12.190 15.405,11.082 15.405,9.714 C15.405,8.347 14.329,7.238 13.003,7.238 Z" class="cls-1"/>
</svg>
