<svg xmlns="http://www.w3.org/2000/svg" xmlns:xlink="http://www.w3.org/1999/xlink" preserveAspectRatio="xMidYMid" width="14" height="14" viewBox="0 0 14 14">
  <defs>
    <style>
      .cls-1 {
        fill: #fff;
        stroke: #fff;
        stroke-linejoin: round;
        stroke-width: 1px;
        fill-rule: evenodd;
      }
    </style>
  </defs>
  <path d="M7.000,7.999 C4.680,7.999 2.799,6.210 2.799,4.000 C2.799,1.791 4.680,-0.000 7.000,-0.000 C9.320,-0.000 11.200,1.791 11.200,4.000 C11.200,6.210 9.320,7.999 7.000,7.999 ZM7.000,6.666 C8.546,6.666 9.800,5.473 9.800,4.000 C9.800,2.528 8.546,1.333 7.000,1.333 C5.453,1.333 4.200,2.528 4.200,4.000 C4.200,5.473 5.453,6.666 7.000,6.666 ZM-0.001,12.667 L-0.001,11.334 C-0.001,9.860 1.252,8.666 2.799,8.666 L11.200,8.666 C12.748,8.666 14.001,9.860 14.001,11.334 L14.001,12.667 C14.001,13.403 13.374,14.000 12.601,14.000 L1.399,14.000 C0.625,14.000 -0.001,13.403 -0.001,12.667 ZM1.399,12.667 L12.601,12.667 L12.601,11.334 C12.601,10.597 11.973,10.000 11.200,10.000 L2.799,10.000 C2.025,10.000 1.399,10.597 1.399,11.334 L1.399,12.667 Z" class="cls-1"/>
</svg>
