<?xml version="1.0" encoding="utf-8"?>
<!-- Generator: Adobe Illustrator 22.1.0, SVG Export Plug-In . SVG Version: 6.00 Build 0)  -->
<svg version="1.1" id="Layer_1" xmlns="http://www.w3.org/2000/svg" xmlns:xlink="http://www.w3.org/1999/xlink" x="0px" y="0px"
	 viewBox="0 0 26 26" style="enable-background:new 0 0 26 26;" xml:space="preserve">
<style type="text/css">
	.st0{fill:#754242;}
</style>
<path class="st0" d="M13-1C5.3-1-1,5.3-1,13s6.3,14,14,14s14-6.3,14-14S20.7-1,13-1z M13,25C6.4,25,1,19.6,1,13C1,6.4,6.4,1,13,1
	c6.6,0,12,5.4,12,12C25,19.6,19.6,25,13,25z"/>
<path class="st0" d="M13,13.4c-2,0-3.6-1.7-3.6-3.7C9.4,7.7,11,6,13,6s3.6,1.7,3.6,3.7C16.6,11.8,15,13.4,13,13.4z M13,12.2
	c1.3,0,2.4-1.1,2.4-2.5c0-1.4-1.1-2.5-2.4-2.5c-1.3,0-2.4,1.1-2.4,2.5C10.6,11.1,11.7,12.2,13,12.2z M7,17.8v-1.2
	C7,15.2,8.1,14,9.4,14h7.2c1.3,0,2.4,1.1,2.4,2.5v1.2c0,0.7-0.5,1.2-1.2,1.2H8.2C7.5,19,7,18.4,7,17.8z M8.2,17.8h9.6v-1.2
	c0-0.7-0.5-1.2-1.2-1.2H9.4c-0.7,0-1.2,0.6-1.2,1.2V17.8z"/>
</svg>
