<svg xmlns="http://www.w3.org/2000/svg" xmlns:xlink="http://www.w3.org/1999/xlink" preserveAspectRatio="xMidYMid" width="16" height="14" viewBox="0 0 16 14">
  <defs>
    <style>
      .cls-1 {
        fill: #b9b9b9;
        fill-rule: evenodd;
      }
    </style>
  </defs>
  <path d="M14.546,5.311 L14.546,3.865 C14.546,3.066 13.894,2.419 13.091,2.419 L2.906,2.419 C2.102,2.419 1.451,3.066 1.451,3.865 L1.451,5.311 L14.546,5.311 ZM14.546,6.758 L1.451,6.758 L1.451,11.096 C1.451,11.895 2.102,12.543 2.906,12.543 L13.091,12.543 C13.894,12.543 14.546,11.895 14.546,11.096 L14.546,6.758 ZM2.906,0.973 L13.091,0.973 C14.698,0.973 16.001,2.267 16.001,3.865 L16.001,11.096 C16.001,12.694 14.698,13.989 13.091,13.989 L2.906,13.989 C1.299,13.989 -0.004,12.694 -0.004,11.096 L-0.004,3.865 C-0.004,2.267 1.299,0.973 2.906,0.973 ZM12.363,9.650 C12.765,9.650 13.091,9.974 13.091,10.373 C13.091,10.773 12.765,11.096 12.363,11.096 L10.181,11.096 C9.779,11.096 9.453,10.773 9.453,10.373 C9.453,9.974 9.779,9.650 10.181,9.650 L12.363,9.650 Z" class="cls-1"/>
</svg>
