<svg xmlns="http://www.w3.org/2000/svg" xmlns:xlink="http://www.w3.org/1999/xlink" preserveAspectRatio="xMidYMid" width="16" height="16" class="left-icons" viewBox="0 0 16 16">
  <path d="M2.400,-0.000 L4.800,-0.000 C6.125,-0.000 7.200,1.074 7.200,2.400 L7.200,4.800 C7.200,6.125 6.125,7.200 4.800,7.200 L2.400,7.200 C1.075,7.200 -0.000,6.125 -0.000,4.800 L-0.000,2.400 C-0.000,1.074 1.075,-0.000 2.400,-0.000 ZM2.400,1.600 C1.958,1.600 1.600,1.958 1.600,2.400 L1.600,4.800 C1.600,5.242 1.958,5.600 2.400,5.600 L4.800,5.600 C5.242,5.600 5.600,5.242 5.600,4.800 L5.600,2.400 C5.600,1.958 5.242,1.600 4.800,1.600 L2.400,1.600 ZM2.400,8.800 L4.800,8.800 C6.125,8.800 7.200,9.874 7.200,11.200 L7.200,13.600 C7.200,14.925 6.125,16.000 4.800,16.000 L2.400,16.000 C1.075,16.000 -0.000,14.925 -0.000,13.600 L-0.000,11.200 C-0.000,9.874 1.075,8.800 2.400,8.800 ZM2.400,10.400 C1.958,10.400 1.600,10.758 1.600,11.200 L1.600,13.600 C1.600,14.042 1.958,14.400 2.400,14.400 L4.800,14.400 C5.242,14.400 5.600,14.042 5.600,13.600 L5.600,11.200 C5.600,10.758 5.242,10.400 4.800,10.400 L2.400,10.400 ZM11.200,-0.000 L13.600,-0.000 C14.925,-0.000 16.000,1.074 16.000,2.400 L16.000,4.800 C16.000,6.125 14.925,7.200 13.600,7.200 L11.200,7.200 C9.874,7.200 8.800,6.125 8.800,4.800 L8.800,2.400 C8.800,1.074 9.874,-0.000 11.200,-0.000 ZM11.200,1.600 C10.758,1.600 10.400,1.958 10.400,2.400 L10.400,4.800 C10.400,5.242 10.758,5.600 11.200,5.600 L13.600,5.600 C14.042,5.600 14.400,5.242 14.400,4.800 L14.400,2.400 C14.400,1.958 14.042,1.600 13.600,1.600 L11.200,1.600 ZM11.200,8.800 L13.600,8.800 C14.925,8.800 16.000,9.874 16.000,11.200 L16.000,13.600 C16.000,14.925 14.925,16.000 13.600,16.000 L11.200,16.000 C9.874,16.000 8.800,14.925 8.800,13.600 L8.800,11.200 C8.800,9.874 9.874,8.800 11.200,8.800 ZM11.200,10.400 C10.758,10.400 10.400,10.758 10.400,11.200 L10.400,13.600 C10.400,14.042 10.758,14.400 11.200,14.400 L13.600,14.400 C14.042,14.400 14.400,14.042 14.400,13.600 L14.400,11.200 C14.400,10.758 14.042,10.400 13.600,10.400 L11.200,10.400 Z">
</svg>
