<svg xmlns="http://www.w3.org/2000/svg" xmlns:xlink="http://www.w3.org/1999/xlink" preserveAspectRatio="xMidYMid" width="12" height="14" class="left-icons" viewBox="0 0 12 14">  
  <path d="M3.333,2.000 L3.333,0.667 C3.333,0.298 3.632,-0.000 4.000,-0.000 L8.000,-0.000 C8.368,-0.000 8.667,0.298 8.667,0.667 L8.667,2.000 L11.333,2.000 C11.701,2.000 12.000,2.298 12.000,2.667 C12.000,3.035 11.701,3.333 11.333,3.333 L11.333,11.333 C11.333,12.806 10.139,14.000 8.667,14.000 L3.333,14.000 C1.861,14.000 0.667,12.806 0.667,11.333 L0.667,3.333 C0.298,3.333 -0.000,3.035 -0.000,2.667 C-0.000,2.298 0.298,2.000 0.667,2.000 L3.333,2.000 ZM2.000,3.333 L2.000,11.333 C2.000,12.070 2.597,12.667 3.333,12.667 L8.667,12.667 C9.403,12.667 10.000,12.070 10.000,11.333 L10.000,3.333 L2.000,3.333 ZM4.000,5.333 C4.000,4.965 4.298,4.667 4.667,4.667 C5.035,4.667 5.333,4.965 5.333,5.333 L5.333,10.667 C5.333,11.035 5.035,11.333 4.667,11.333 C4.298,11.333 4.000,11.035 4.000,10.667 L4.000,5.333 ZM6.667,5.333 C6.667,4.965 6.965,4.667 7.333,4.667 C7.701,4.667 8.000,4.965 8.000,5.333 L8.000,10.667 C8.000,11.035 7.701,11.333 7.333,11.333 C6.965,11.333 6.667,11.035 6.667,10.667 L6.667,5.333 ZM4.667,2.000 L7.333,2.000 L7.333,1.333 L4.667,1.333 L4.667,2.000 Z">
</svg>
