<svg xmlns="http://www.w3.org/2000/svg" xmlns:xlink="http://www.w3.org/1999/xlink" preserveAspectRatio="xMidYMid" width="16" height="13" viewBox="0 0 16 13">
  <defs>
    <style>
      .cls-1 {
        fill: #b9b9b9;
        fill-rule: evenodd;
      }
    </style>
  </defs>
  <path d="M8.000,12.997 C3.995,12.997 -0.000,9.432 -0.000,6.491 C-0.000,3.551 3.995,-0.015 8.000,-0.015 C12.005,-0.015 16.000,3.551 16.000,6.491 C16.000,9.432 12.005,12.997 8.000,12.997 ZM8.000,11.552 C11.235,11.552 14.545,8.597 14.545,6.491 C14.545,4.386 11.235,1.431 8.000,1.431 C4.765,1.431 1.454,4.386 1.454,6.491 C1.454,8.597 4.765,11.552 8.000,11.552 ZM8.000,9.744 C6.192,9.744 4.727,8.288 4.727,6.491 C4.727,4.695 6.192,3.238 8.000,3.238 C9.807,3.238 11.273,4.695 11.273,6.491 C11.273,8.288 9.807,9.744 8.000,9.744 ZM8.000,8.299 C9.004,8.299 9.818,7.489 9.818,6.491 C9.818,5.493 9.004,4.684 8.000,4.684 C6.996,4.684 6.182,5.493 6.182,6.491 C6.182,7.489 6.996,8.299 8.000,8.299 Z" class="cls-1"/>
</svg>
