<svg xmlns="http://www.w3.org/2000/svg" xmlns:xlink="http://www.w3.org/1999/xlink" preserveAspectRatio="xMidYMid" width="15" height="17" viewBox="0 0 15 17">
  <defs>
    <style>
      .cls-1 {
        fill: #b9b9b9;
        fill-rule: evenodd;
      }
    </style>
  </defs>
  <path d="M1.422,1.195 C1.563,1.054 1.757,0.969 1.968,0.974 L5.796,1.061 C6.458,1.076 7.098,1.315 7.620,1.741 L9.427,3.218 C9.688,3.431 10.008,3.551 10.339,3.558 L13.401,3.628 C14.247,3.647 14.917,4.377 14.899,5.258 L14.731,13.231 C14.712,14.112 14.012,14.810 13.166,14.791 L10.104,14.721 C9.442,14.706 8.802,14.467 8.280,14.041 L6.473,12.564 C6.212,12.351 5.892,12.231 5.561,12.224 L2.499,12.154 L2.415,16.141 C2.406,16.581 2.056,16.930 1.633,16.921 C1.210,16.911 0.875,16.546 0.884,16.106 L1.186,1.754 C1.190,1.534 1.280,1.336 1.422,1.195 ZM2.700,2.586 L2.532,10.560 L5.595,10.629 C6.257,10.645 6.897,10.883 7.419,11.309 L9.226,12.786 C9.486,12.999 9.806,13.119 10.138,13.126 L13.200,13.196 L13.368,5.223 L10.305,5.153 C9.643,5.138 9.003,4.899 8.481,4.473 L6.674,2.996 C6.414,2.783 6.094,2.664 5.762,2.656 L2.700,2.586 Z" class="cls-1"/>
</svg>
