<svg xmlns="http://www.w3.org/2000/svg" xmlns:xlink="http://www.w3.org/1999/xlink" preserveAspectRatio="xMidYMid" width="17" height="16" class="left-icons" viewBox="0 0 17 16">
  <path d="M8.986,2.686 C10.063,1.473 11.134,0.840 12.625,0.840 C15.198,0.840 16.992,2.864 16.992,5.524 C16.992,8.763 14.567,12.047 9.813,15.436 C9.315,15.791 8.656,15.791 8.158,15.436 C3.405,12.047 0.979,8.763 0.979,5.524 C0.979,2.864 2.773,0.840 5.346,0.840 C6.838,0.840 7.909,1.473 8.986,2.686 ZM8.417,4.312 C7.384,2.976 6.534,2.342 5.346,2.342 C3.607,2.342 2.435,3.665 2.435,5.524 C2.435,8.151 4.586,11.064 8.986,14.200 C13.385,11.064 15.537,8.151 15.537,5.524 C15.537,3.665 14.364,2.342 12.625,2.342 C11.437,2.342 10.587,2.976 9.555,4.312 C9.263,4.690 8.708,4.690 8.417,4.312 Z">
</svg>
