<svg xmlns="http://www.w3.org/2000/svg" xmlns:xlink="http://www.w3.org/1999/xlink" preserveAspectRatio="xMidYMid" width="18" height="17" class="more-options" viewBox="0 0 18 17">
  <path d="M8.992,2.914 C10.202,1.614 11.406,0.936 13.081,0.936 C15.973,0.936 17.989,3.105 17.989,5.956 C17.989,9.428 15.263,12.948 9.922,16.580 C9.362,16.961 8.622,16.961 8.062,16.580 C2.721,12.948 -0.005,9.428 -0.005,5.956 C-0.005,3.105 2.011,0.936 4.903,0.936 C6.578,0.936 7.782,1.614 8.992,2.914 ZM8.352,4.657 C7.193,3.225 6.237,2.546 4.903,2.546 C2.949,2.546 1.631,3.964 1.631,5.956 C1.631,8.772 4.048,11.894 8.992,15.256 C13.936,11.894 16.353,8.772 16.353,5.956 C16.353,3.964 15.035,2.546 13.081,2.546 C11.747,2.546 10.791,3.225 9.632,4.657 C9.304,5.062 8.680,5.062 8.352,4.657 Z">
</svg>