<svg xmlns="http://www.w3.org/2000/svg" xmlns:xlink="http://www.w3.org/1999/xlink" preserveAspectRatio="xMidYMid" width="16" height="16" class="left-icons" viewBox="0 0 16 16">
  <path d="M11.450,14.478 L12.953,14.478 C13.783,14.478 14.456,13.803 14.456,12.970 L14.456,6.490 C14.456,6.009 14.227,5.557 13.841,5.273 L9.332,1.959 C8.804,1.570 8.085,1.570 7.556,1.959 L3.048,5.273 C2.661,5.557 2.433,6.009 2.433,6.490 L2.433,12.970 C2.433,13.803 3.106,14.478 3.936,14.478 L5.439,14.478 L5.439,8.445 C5.439,8.028 5.775,7.691 6.190,7.691 L10.699,7.691 C11.114,7.691 11.450,8.028 11.450,8.445 L11.450,14.478 ZM9.947,14.478 L9.947,9.199 L6.941,9.199 L6.941,14.478 L9.947,14.478 ZM2.160,4.056 L6.668,0.742 C7.726,-0.035 9.163,-0.035 10.220,0.742 L14.729,4.056 C15.502,4.625 15.959,5.528 15.959,6.490 L15.959,12.970 C15.959,14.636 14.613,15.986 12.953,15.986 L3.936,15.986 C2.276,15.986 0.930,14.636 0.930,12.970 L0.930,6.490 C0.930,5.528 1.387,4.625 2.160,4.056 Z">
</svg>
