<svg xmlns="http://www.w3.org/2000/svg" xmlns:xlink="http://www.w3.org/1999/xlink" preserveAspectRatio="xMidYMid" width="17" height="18" class="header-icon" viewBox="0 0 17 18">
  <path d="M11.895,16.310 L13.595,16.310 C14.534,16.310 15.296,15.551 15.296,14.615 L15.296,7.330 C15.296,6.790 15.037,6.282 14.600,5.963 L9.498,2.237 C8.900,1.800 8.087,1.800 7.489,2.237 L2.387,5.963 C1.950,6.282 1.692,6.790 1.692,7.330 L1.692,14.615 C1.692,15.551 2.453,16.310 3.392,16.310 L5.093,16.310 L5.093,9.528 C5.093,9.060 5.473,8.680 5.943,8.680 L11.044,8.680 C11.514,8.680 11.895,9.060 11.895,9.528 L11.895,16.310 ZM10.194,16.310 L10.194,10.376 L6.793,10.376 L6.793,16.310 L10.194,16.310 ZM1.383,4.595 L6.484,0.869 C7.680,-0.005 9.307,-0.005 10.503,0.869 L15.605,4.595 C16.479,5.233 16.996,6.250 16.996,7.330 L16.996,14.615 C16.996,16.487 15.473,18.006 13.595,18.006 L3.392,18.006 C1.514,18.006 -0.009,16.487 -0.009,14.615 L-0.009,7.330 C-0.009,6.250 0.508,5.233 1.383,4.595 Z">
</svg>
