<svg xmlns="http://www.w3.org/2000/svg" xmlns:xlink="http://www.w3.org/1999/xlink" preserveAspectRatio="xMidYMid" width="16" height="16" class="left-icons" viewBox="0 0 16 16">
  <path d="M8.000,16.000 C3.582,16.000 -0.000,12.418 -0.000,8.000 C-0.000,3.582 3.582,-0.000 8.000,-0.000 C12.418,-0.000 16.000,3.582 16.000,8.000 C16.000,12.418 12.418,16.000 8.000,16.000 ZM8.000,14.545 C11.615,14.545 14.545,11.615 14.545,8.000 C14.545,4.385 11.615,1.454 8.000,1.454 C4.385,1.454 1.454,4.385 1.454,8.000 C1.454,11.615 4.385,14.545 8.000,14.545 ZM7.636,12.000 L7.636,8.000 L6.909,8.000 C6.507,8.000 6.182,7.674 6.182,7.273 C6.182,6.871 6.507,6.545 6.909,6.545 L8.364,6.545 C8.765,6.545 9.091,6.871 9.091,7.273 L9.091,12.000 C9.091,12.401 8.765,12.727 8.364,12.727 C7.962,12.727 7.636,12.401 7.636,12.000 ZM7.273,4.364 C7.273,3.962 7.598,3.636 8.000,3.636 C8.402,3.636 8.727,3.962 8.727,4.364 C8.727,4.765 8.402,5.091 8.000,5.091 C7.598,5.091 7.273,4.765 7.273,4.364 Z">
</svg>
