<svg xmlns="http://www.w3.org/2000/svg" xmlns:xlink="http://www.w3.org/1999/xlink" preserveAspectRatio="xMidYMid" width="16" height="18" class="option-links" viewBox="0 0 16 18">
  <path d="M8.871,8.101 C8.546,7.776 8.546,7.247 8.871,6.922 C9.197,6.596 9.725,6.596 10.051,6.922 C11.680,8.551 11.680,11.192 10.051,12.821 L7.102,15.771 C5.472,17.400 2.831,17.400 1.202,15.771 C-0.427,14.142 -0.427,11.500 1.202,9.871 L1.792,9.281 C2.118,8.956 2.646,8.956 2.972,9.281 C3.298,9.607 3.298,10.135 2.972,10.461 L2.382,11.051 C1.404,12.029 1.404,13.614 2.382,14.591 C3.359,15.568 4.944,15.568 5.922,14.591 L8.871,11.641 C9.849,10.664 9.849,9.079 8.871,8.101 ZM7.102,9.871 C7.427,10.197 7.427,10.725 7.102,11.051 C6.776,11.377 6.247,11.377 5.922,11.051 C4.293,9.422 4.293,6.781 5.922,5.152 L8.871,2.202 C10.501,0.573 13.142,0.573 14.771,2.202 C16.400,3.831 16.400,6.472 14.771,8.101 L14.181,8.691 C13.855,9.017 13.327,9.017 13.001,8.691 C12.675,8.366 12.675,7.837 13.001,7.511 L13.591,6.922 C14.569,5.944 14.569,4.359 13.591,3.382 C12.614,2.404 11.029,2.404 10.051,3.382 L7.102,6.332 C6.124,7.309 6.124,8.894 7.102,9.871 Z">
</svg>