<svg xmlns="http://www.w3.org/2000/svg" xmlns:xlink="http://www.w3.org/1999/xlink" preserveAspectRatio="xMidYMid" width="18" height="14" viewBox="0 0 18 14">
  <defs>
    <style>
      .cls-1 {
        fill: #c1c1c1;
        fill-rule: evenodd;
      }
    </style>
  </defs>
  <path d="M17.000,-0.000 C17.552,-0.000 18.000,0.448 18.000,1.000 C18.000,1.552 17.552,2.000 17.000,2.000 L1.000,2.000 C0.448,2.000 -0.000,1.552 -0.000,1.000 C-0.000,0.448 0.448,-0.000 1.000,-0.000 L17.000,-0.000 ZM17.000,6.000 C17.552,6.000 18.000,6.447 18.000,7.000 C18.000,7.552 17.552,8.000 17.000,8.000 L1.000,8.000 C0.448,8.000 -0.000,7.552 -0.000,7.000 C-0.000,6.447 0.448,6.000 1.000,6.000 L17.000,6.000 ZM17.000,12.000 C17.552,12.000 18.000,12.448 18.000,13.000 C18.000,13.552 17.552,14.000 17.000,14.000 L1.000,14.000 C0.448,14.000 -0.000,13.552 -0.000,13.000 C-0.000,12.448 0.448,12.000 1.000,12.000 L17.000,12.000 Z" class="cls-1"/>
</svg>
