<svg xmlns="http://www.w3.org/2000/svg" xmlns:xlink="http://www.w3.org/1999/xlink" preserveAspectRatio="xMidYMid" width="17" height="17" viewBox="0 0 17 17">
  <defs>
    <style>
      .cls-1 {
        fill: #b9b9b9;
        fill-rule: evenodd;
      }
    </style>
  </defs>
  <path d="M1.028,15.673 L1.795,13.576 C1.662,13.338 1.545,13.091 1.443,12.836 C1.137,12.074 0.978,11.254 0.978,10.412 C0.978,9.125 1.351,7.893 2.036,6.852 C2.274,6.490 2.749,6.397 3.098,6.643 C3.447,6.889 3.537,7.381 3.300,7.743 C2.786,8.524 2.507,9.445 2.507,10.412 C2.507,11.045 2.626,11.659 2.855,12.230 C2.970,12.517 3.112,12.792 3.279,13.050 C3.417,13.263 3.447,13.532 3.359,13.771 L3.059,14.590 L3.850,14.280 C4.081,14.189 4.341,14.220 4.546,14.362 C4.796,14.535 5.061,14.682 5.339,14.801 C5.890,15.038 6.483,15.162 7.094,15.162 C7.940,15.162 8.751,14.925 9.459,14.483 C9.820,14.257 10.290,14.378 10.508,14.752 C10.726,15.127 10.610,15.614 10.248,15.839 C9.304,16.429 8.220,16.745 7.094,16.745 C6.281,16.745 5.489,16.580 4.753,16.264 C4.507,16.159 4.269,16.037 4.039,15.899 L2.014,16.694 C1.398,16.935 0.794,16.311 1.028,15.673 ZM12.876,13.149 C12.140,13.465 11.348,13.630 10.535,13.630 C7.157,13.630 4.419,10.794 4.419,7.297 C4.419,3.799 7.157,0.964 10.535,0.964 C13.913,0.964 16.651,3.799 16.651,7.297 C16.651,8.139 16.492,8.959 16.187,9.721 C16.085,9.976 15.967,10.223 15.834,10.461 L16.601,12.558 C16.835,13.196 16.232,13.820 15.615,13.579 L13.590,12.784 C13.360,12.921 13.122,13.044 12.876,13.149 ZM14.270,10.656 C14.182,10.417 14.212,10.148 14.350,9.935 C14.517,9.677 14.659,9.402 14.774,9.115 C15.003,8.544 15.122,7.930 15.122,7.297 C15.122,4.674 13.068,2.547 10.535,2.547 C8.001,2.547 5.948,4.674 5.948,7.297 C5.948,9.920 8.001,12.047 10.535,12.047 C11.146,12.047 11.739,11.923 12.290,11.687 C12.568,11.567 12.833,11.420 13.083,11.247 C13.288,11.105 13.548,11.074 13.779,11.165 L14.570,11.475 L14.270,10.656 Z" class="cls-1"/>
</svg>
