<svg xmlns="http://www.w3.org/2000/svg" xmlns:xlink="http://www.w3.org/1999/xlink" preserveAspectRatio="xMidYMid" width="19" height="18" class="header-icon" viewBox="0 0 19 18">
  <path d="M0.954,16.559 L1.817,14.200 C1.667,13.932 1.535,13.654 1.420,13.368 C1.077,12.510 0.898,11.587 0.898,10.640 C0.898,9.192 1.317,7.806 2.087,6.634 C2.355,6.227 2.890,6.122 3.282,6.399 C3.675,6.676 3.776,7.230 3.509,7.636 C2.931,8.515 2.618,9.552 2.618,10.640 C2.618,11.352 2.752,12.043 3.009,12.685 C3.138,13.009 3.298,13.318 3.486,13.609 C3.641,13.848 3.674,14.150 3.575,14.420 L3.238,15.341 L4.128,14.992 C4.388,14.890 4.680,14.924 4.911,15.085 C5.192,15.279 5.490,15.445 5.802,15.579 C6.422,15.845 7.089,15.984 7.777,15.984 C8.728,15.984 9.640,15.718 10.436,15.221 C10.842,14.967 11.371,15.103 11.616,15.524 C11.861,15.945 11.730,16.493 11.324,16.746 C10.261,17.410 9.043,17.766 7.777,17.766 C6.862,17.766 5.971,17.580 5.143,17.225 C4.867,17.106 4.599,16.969 4.340,16.814 L2.062,17.708 C1.369,17.980 0.691,17.277 0.954,16.559 ZM14.279,13.720 C13.452,14.075 12.561,14.261 11.646,14.261 C7.847,14.261 4.767,11.071 4.767,7.135 C4.767,3.200 7.847,0.009 11.646,0.009 C15.445,0.009 18.525,3.200 18.525,7.135 C18.525,8.082 18.346,9.005 18.003,9.863 C17.888,10.149 17.755,10.427 17.606,10.695 L18.469,13.054 C18.732,13.772 18.053,14.475 17.360,14.203 L15.083,13.309 C14.824,13.464 14.556,13.601 14.279,13.720 ZM15.847,10.915 C15.749,10.645 15.782,10.343 15.937,10.104 C16.125,9.813 16.285,9.504 16.414,9.181 C16.671,8.538 16.805,7.847 16.805,7.135 C16.805,4.184 14.495,1.791 11.646,1.791 C8.797,1.791 6.487,4.184 6.487,7.135 C6.487,10.087 8.797,12.479 11.646,12.479 C12.334,12.479 13.001,12.340 13.621,12.074 C13.933,11.940 14.231,11.774 14.512,11.580 C14.743,11.419 15.035,11.385 15.295,11.487 L16.185,11.836 L15.847,10.915 Z">
</svg>
