<svg xmlns="http://www.w3.org/2000/svg" xmlns:xlink="http://www.w3.org/1999/xlink" preserveAspectRatio="xMidYMid" width="18" height="18" class="header-icon" viewBox="0 0 18 18">
  <path d="M12.071,15.136 C11.864,16.751 10.451,18.000 8.738,18.000 C7.025,18.000 5.611,16.751 5.404,15.136 L2.052,15.136 C1.124,15.136 0.372,14.404 0.372,13.500 C0.372,13.137 0.496,12.785 0.724,12.498 L2.019,10.868 L2.019,6.545 C2.019,2.930 5.027,-0.000 8.738,-0.000 C12.448,-0.000 15.456,2.930 15.456,6.545 L15.456,10.868 L16.752,12.498 C17.319,13.213 17.185,14.240 16.452,14.794 C16.157,15.016 15.796,15.136 15.423,15.136 L12.071,15.136 ZM10.364,15.136 L7.111,15.136 C7.297,15.842 7.955,16.363 8.738,16.363 C9.520,16.363 10.178,15.842 10.364,15.136 ZM3.699,6.545 L3.699,11.148 C3.699,11.329 3.637,11.505 3.523,11.648 L2.052,13.500 L15.423,13.500 L13.952,11.648 C13.838,11.505 13.776,11.329 13.776,11.148 L13.776,6.545 C13.776,3.834 11.521,1.636 8.738,1.636 C5.955,1.636 3.699,3.834 3.699,6.545 Z">
</svg>
