<svg xmlns="http://www.w3.org/2000/svg" xmlns:xlink="http://www.w3.org/1999/xlink" preserveAspectRatio="xMidYMid" width="20" height="19" class="radar-icon3" viewBox="0 0 20 19">
  <path d="M3.800,-0.004 L6.648,-0.004 C8.220,-0.004 9.495,1.271 9.495,2.843 L9.495,5.691 C9.495,7.264 8.220,8.539 6.648,8.539 L3.800,8.539 C2.227,8.539 0.952,7.264 0.952,5.691 L0.952,2.843 C0.952,1.271 2.227,-0.004 3.800,-0.004 ZM3.800,1.894 C3.276,1.894 2.851,2.319 2.851,2.843 L2.851,5.691 C2.851,6.215 3.276,6.640 3.800,6.640 L6.648,6.640 C7.172,6.640 7.597,6.215 7.597,5.691 L7.597,2.843 C7.597,2.319 7.172,1.894 6.648,1.894 L3.800,1.894 ZM3.800,10.437 L6.648,10.437 C8.220,10.437 9.495,11.712 9.495,13.285 L9.495,16.132 C9.495,17.705 8.220,18.980 6.648,18.980 L3.800,18.980 C2.227,18.980 0.952,17.705 0.952,16.132 L0.952,13.285 C0.952,11.712 2.227,10.437 3.800,10.437 ZM3.800,12.335 C3.276,12.335 2.851,12.760 2.851,13.285 L2.851,16.132 C2.851,16.657 3.276,17.081 3.800,17.081 L6.648,17.081 C7.172,17.081 7.597,16.657 7.597,16.132 L7.597,13.285 C7.597,12.760 7.172,12.335 6.648,12.335 L3.800,12.335 ZM14.241,-0.004 L17.089,-0.004 C18.662,-0.004 19.936,1.271 19.936,2.843 L19.936,5.691 C19.936,7.264 18.662,8.539 17.089,8.539 L14.241,8.539 C12.669,8.539 11.394,7.264 11.394,5.691 L11.394,2.843 C11.394,1.271 12.669,-0.004 14.241,-0.004 ZM14.241,1.894 C13.717,1.894 13.292,2.319 13.292,2.843 L13.292,5.691 C13.292,6.215 13.717,6.640 14.241,6.640 L17.089,6.640 C17.613,6.640 18.038,6.215 18.038,5.691 L18.038,2.843 C18.038,2.319 17.613,1.894 17.089,1.894 L14.241,1.894 ZM14.241,10.437 L17.089,10.437 C18.662,10.437 19.936,11.712 19.936,13.285 L19.936,16.132 C19.936,17.705 18.662,18.980 17.089,18.980 L14.241,18.980 C12.669,18.980 11.394,17.705 11.394,16.132 L11.394,13.285 C11.394,11.712 12.669,10.437 14.241,10.437 ZM14.241,12.335 C13.717,12.335 13.292,12.760 13.292,13.285 L13.292,16.132 C13.292,16.657 13.717,17.081 14.241,17.081 L17.089,17.081 C17.613,17.081 18.038,16.657 18.038,16.132 L18.038,13.285 C18.038,12.760 17.613,12.335 17.089,12.335 L14.241,12.335 Z">
</svg>