<svg xmlns="http://www.w3.org/2000/svg" xmlns:xlink="http://www.w3.org/1999/xlink" preserveAspectRatio="xMidYMid" width="16" height="18" class="option-links" viewBox="0 0 16 18">
  <path d="M8.000,17.000 C3.582,17.000 -0.000,13.418 -0.000,9.000 C-0.000,4.582 3.582,1.000 8.000,1.000 C12.418,1.000 16.000,4.582 16.000,9.000 C16.000,13.418 12.418,17.000 8.000,17.000 ZM8.000,15.545 C11.615,15.545 14.545,12.615 14.545,9.000 C14.545,5.385 11.615,2.455 8.000,2.455 C4.385,2.455 1.455,5.385 1.455,9.000 C1.455,12.615 4.385,15.545 8.000,15.545 ZM7.273,13.000 C7.273,12.598 7.598,12.273 8.000,12.273 C8.402,12.273 8.727,12.598 8.727,13.000 C8.727,13.402 8.402,13.727 8.000,13.727 C7.598,13.727 7.273,13.402 7.273,13.000 ZM7.273,5.182 C7.273,4.780 7.598,4.455 8.000,4.455 C8.402,4.455 8.727,4.780 8.727,5.182 L8.727,10.273 C8.727,10.674 8.402,11.000 8.000,11.000 C7.598,11.000 7.273,10.674 7.273,10.273 L7.273,5.182 Z">
</svg>