<svg xmlns="http://www.w3.org/2000/svg" xmlns:xlink="http://www.w3.org/1999/xlink" preserveAspectRatio="xMidYMid" width="16" height="18" class="option-links" viewBox="0 0 16 18">
  <path d="M11.059,16.367 C10.097,16.765 9.061,16.973 7.997,16.973 C3.578,16.973 -0.004,13.397 -0.004,8.985 C-0.004,4.573 3.578,0.996 7.997,0.996 C12.415,0.996 15.997,4.573 15.997,8.985 C15.997,10.047 15.789,11.081 15.390,12.043 C15.240,12.403 15.064,12.752 14.864,13.086 L15.948,15.943 C16.181,16.556 15.579,17.156 14.965,16.924 L12.104,15.841 C11.770,16.042 11.421,16.217 11.059,16.367 ZM13.304,13.270 C13.216,13.040 13.246,12.782 13.383,12.577 C13.619,12.225 13.820,11.851 13.982,11.460 C14.305,10.683 14.473,9.846 14.473,8.985 C14.473,5.413 11.574,2.518 7.997,2.518 C4.420,2.518 1.520,5.413 1.520,8.985 C1.520,12.556 4.420,15.452 7.997,15.452 C8.859,15.452 9.697,15.284 10.476,14.961 C10.868,14.799 11.242,14.599 11.595,14.363 C11.800,14.226 12.058,14.197 12.289,14.284 L13.923,14.902 L13.304,13.270 ZM4.187,8.985 C4.187,8.565 4.528,8.224 4.949,8.224 C5.370,8.224 5.711,8.565 5.711,8.985 C5.711,9.405 5.370,9.746 4.949,9.746 C4.528,9.746 4.187,9.405 4.187,8.985 ZM7.235,8.985 C7.235,8.565 7.576,8.224 7.997,8.224 C8.418,8.224 8.759,8.565 8.759,8.985 C8.759,9.405 8.418,9.746 7.997,9.746 C7.576,9.746 7.235,9.405 7.235,8.985 ZM10.283,8.985 C10.283,8.565 10.624,8.224 11.045,8.224 C11.466,8.224 11.807,8.565 11.807,8.985 C11.807,9.405 11.466,9.746 11.045,9.746 C10.624,9.746 10.283,9.405 10.283,8.985 Z">
</svg>