<svg xmlns="http://www.w3.org/2000/svg" xmlns:xlink="http://www.w3.org/1999/xlink" preserveAspectRatio="xMidYMid" width="19" height="18" class="header-icon" viewBox="0 0 19 18">
  <path d="M14.720,12.516 L18.658,16.455 C18.993,16.790 18.993,17.332 18.658,17.667 C18.324,18.001 17.781,18.001 17.447,17.667 L13.508,13.728 C12.189,14.783 10.516,15.414 8.695,15.414 C4.436,15.414 0.984,11.962 0.984,7.703 C0.984,3.445 4.436,-0.007 8.695,-0.007 C12.954,-0.007 16.406,3.445 16.406,7.703 C16.406,9.524 15.775,11.197 14.720,12.516 L14.720,12.516 ZM8.695,13.701 C12.007,13.701 14.692,11.016 14.692,7.703 C14.692,4.391 12.007,1.706 8.695,1.706 C5.383,1.706 2.698,4.391 2.698,7.703 C2.698,11.016 5.383,13.701 8.695,13.701 Z">
</svg>
