<svg xmlns="http://www.w3.org/2000/svg" xmlns:xlink="http://www.w3.org/1999/xlink" preserveAspectRatio="xMidYMid" width="15" height="15" class="delete-icon" viewBox="0 0 15 15"> 
	<path d="M11.462,10.450 L14.749,13.736 C15.028,14.016 15.028,14.469 14.749,14.748 C14.470,15.027 14.017,15.027 13.738,14.748 L10.451,11.461 C9.350,12.341 7.953,12.868 6.434,12.868 C2.880,12.868 -0.001,9.987 -0.001,6.433 C-0.001,2.879 2.880,-0.002 6.434,-0.002 C9.988,-0.002 12.869,2.879 12.869,6.433 C12.869,7.952 12.343,9.348 11.462,10.450 L11.462,10.450 ZM6.434,11.438 C9.198,11.438 11.439,9.197 11.439,6.433 C11.439,3.668 9.198,1.428 6.434,1.428 C3.670,1.428 1.429,3.668 1.429,6.433 C1.429,9.197 3.670,11.438 6.434,11.438 Z">
</svg>