<svg xmlns="http://www.w3.org/2000/svg" xmlns:xlink="http://www.w3.org/1999/xlink" preserveAspectRatio="xMidYMid" width="17" height="17" viewBox="0 0 17 17">
  <defs>
    <style>
      .cls-1 {
        fill: #b9b9b9;
        fill-rule: evenodd;
      }
    </style>
  </defs>
  <path d="M5.596,14.718 L4.925,14.741 C3.689,14.782 2.654,13.815 2.612,12.580 C2.611,12.529 2.611,12.479 2.612,12.428 L2.635,11.757 C2.649,11.349 2.485,10.954 2.187,10.675 L1.696,10.216 C0.793,9.372 0.745,7.956 1.589,7.053 C1.624,7.016 1.659,6.981 1.696,6.946 L2.187,6.488 C2.485,6.208 2.649,5.814 2.635,5.405 L2.612,4.734 C2.571,3.498 3.538,2.463 4.773,2.422 C4.824,2.420 4.874,2.420 4.925,2.422 L5.596,2.444 C6.005,2.458 6.399,2.295 6.678,1.996 L7.137,1.505 C7.981,0.602 9.397,0.554 10.300,1.398 C10.337,1.433 10.373,1.468 10.407,1.505 L10.866,1.996 C11.145,2.295 11.539,2.458 11.948,2.444 L12.619,2.422 C13.855,2.380 14.890,3.347 14.932,4.583 C14.933,4.633 14.933,4.683 14.932,4.734 L14.909,5.405 C14.895,5.814 15.059,6.208 15.357,6.488 L15.848,6.946 C16.751,7.790 16.799,9.206 15.955,10.109 C15.920,10.146 15.885,10.182 15.848,10.216 L15.357,10.675 C15.059,10.954 14.895,11.349 14.909,11.757 L14.932,12.428 C14.973,13.664 14.006,14.699 12.771,14.741 C12.720,14.742 12.670,14.742 12.619,14.741 L11.948,14.718 C11.539,14.704 11.145,14.868 10.866,15.166 L10.407,15.657 C9.563,16.560 8.147,16.608 7.244,15.764 C7.207,15.730 7.171,15.694 7.137,15.657 L6.678,15.166 C6.399,14.868 6.005,14.704 5.596,14.718 ZM5.548,13.303 C6.365,13.275 7.155,13.602 7.713,14.200 L8.172,14.690 C8.184,14.704 8.197,14.717 8.211,14.729 C8.542,15.039 9.063,15.022 9.372,14.690 L9.831,14.200 C10.389,13.602 11.179,13.275 11.996,13.303 L12.667,13.325 C12.686,13.326 12.704,13.326 12.723,13.325 C13.176,13.310 13.532,12.930 13.516,12.476 L13.494,11.805 C13.466,10.988 13.793,10.198 14.390,9.640 L14.881,9.181 C14.895,9.169 14.908,9.156 14.920,9.142 C15.230,8.811 15.213,8.291 14.881,7.981 L14.390,7.522 C13.793,6.964 13.466,6.175 13.494,5.357 L13.516,4.686 C13.517,4.667 13.517,4.649 13.516,4.630 C13.501,4.177 13.121,3.821 12.667,3.837 L11.996,3.860 C11.179,3.887 10.389,3.560 9.831,2.963 L9.372,2.472 C9.360,2.458 9.347,2.446 9.333,2.433 C9.002,2.123 8.481,2.141 8.172,2.472 L7.713,2.963 C7.155,3.560 6.365,3.887 5.548,3.860 L4.877,3.837 C4.858,3.836 4.840,3.836 4.821,3.837 C4.368,3.852 4.012,4.232 4.028,4.686 L4.050,5.357 C4.078,6.175 3.751,6.964 3.154,7.522 L2.663,7.981 C2.649,7.993 2.636,8.007 2.624,8.020 C2.314,8.352 2.331,8.872 2.663,9.181 L3.154,9.640 C3.751,10.198 4.078,10.988 4.050,11.805 L4.028,12.476 C4.027,12.495 4.027,12.513 4.028,12.532 C4.043,12.985 4.423,13.341 4.877,13.325 L5.548,13.303 ZM8.772,11.767 C7.012,11.767 5.586,10.341 5.586,8.581 C5.586,6.821 7.012,5.395 8.772,5.395 C10.532,5.395 11.958,6.821 11.958,8.581 C11.958,10.341 10.532,11.767 8.772,11.767 ZM8.772,10.351 C9.750,10.351 10.542,9.559 10.542,8.581 C10.542,7.604 9.750,6.811 8.772,6.811 C7.794,6.811 7.002,7.604 7.002,8.581 C7.002,9.559 7.794,10.351 8.772,10.351 Z" class="cls-1"/>
</svg>
