<svg xmlns="http://www.w3.org/2000/svg" xmlns:xlink="http://www.w3.org/1999/xlink" preserveAspectRatio="xMidYMid" width="16" height="18" viewBox="0 0 16 18">
  <defs>
    <style>
      .cls-1 {
        fill: #fff;
        fill-rule: evenodd;
      }
    </style>
  </defs>
  <path d="M6.512,10.160 C6.653,9.799 6.730,9.408 6.730,8.999 C6.730,8.680 6.683,8.371 6.595,8.079 L10.346,5.679 C10.947,6.216 11.749,6.544 12.630,6.544 C14.492,6.544 16.001,5.079 16.001,3.271 C16.001,1.463 14.492,-0.003 12.630,-0.003 C10.768,-0.003 9.258,1.463 9.258,3.271 C9.258,3.632 9.319,3.980 9.430,4.305 L5.730,6.673 C5.121,6.087 4.283,5.726 3.358,5.726 C1.496,5.726 -0.013,7.191 -0.013,8.999 C-0.013,10.807 1.496,12.273 3.358,12.273 C4.188,12.273 4.948,11.982 5.536,11.498 L9.394,13.805 C9.306,14.098 9.258,14.407 9.258,14.728 C9.258,16.536 10.768,18.001 12.630,18.001 C14.492,18.001 16.001,16.536 16.001,14.728 C16.001,12.920 14.492,11.454 12.630,11.454 C11.706,11.454 10.868,11.816 10.259,12.400 L6.512,10.160 ZM12.630,4.908 C11.699,4.908 10.944,4.175 10.944,3.271 C10.944,2.367 11.699,1.634 12.630,1.634 C13.561,1.634 14.316,2.367 14.316,3.271 C14.316,4.175 13.561,4.908 12.630,4.908 ZM3.358,10.636 C2.427,10.636 1.672,9.903 1.672,8.999 C1.672,8.095 2.427,7.363 3.358,7.363 C4.289,7.363 5.044,8.095 5.044,8.999 C5.044,9.903 4.289,10.636 3.358,10.636 ZM12.630,16.365 C11.699,16.365 10.944,15.632 10.944,14.728 C10.944,13.824 11.699,13.091 12.630,13.091 C13.561,13.091 14.316,13.824 14.316,14.728 C14.316,15.632 13.561,16.365 12.630,16.365 Z" class="cls-1"/>
</svg>
