<svg xmlns="http://www.w3.org/2000/svg" xmlns:xlink="http://www.w3.org/1999/xlink" preserveAspectRatio="xMidYMid" width="20" height="20" viewBox="0 0 20 20">
  <defs>
    <style>
      .cls-1 {
        fill: #fa2276;
        fill-rule: evenodd;
      }
    </style>
  </defs>
  <path d="M0.833,11.305 L2.910,11.305 C4.026,11.305 5.007,10.590 5.313,9.553 L6.635,5.085 C6.738,4.736 7.115,4.533 7.477,4.633 C7.719,4.700 7.904,4.890 7.956,5.128 L10.414,16.209 C10.686,17.435 11.934,18.215 13.202,17.952 C14.050,17.777 14.730,17.163 14.968,16.357 L16.289,11.889 C16.391,11.544 16.718,11.305 17.090,11.305 L19.167,11.305 C19.627,11.305 20.000,10.945 20.000,10.500 C20.000,10.055 19.627,9.695 19.167,9.695 L17.090,9.695 C15.974,9.695 14.993,10.410 14.687,11.447 L13.365,15.915 C13.296,16.149 13.099,16.327 12.853,16.378 C12.485,16.454 12.122,16.228 12.044,15.872 L9.586,4.791 C9.404,3.971 8.769,3.315 7.935,3.085 C6.688,2.740 5.388,3.438 5.032,4.643 L3.711,9.111 C3.609,9.457 3.282,9.695 2.910,9.695 L0.833,9.695 C0.373,9.695 0.000,10.055 0.000,10.500 C0.000,10.945 0.373,11.305 0.833,11.305 Z" class="cls-1"/>
</svg>
